# Blender v2.76 (sub 0) OBJ File: ''
# www.blender.org
mtllib SSPipesBendSW.mtl
o PipeCrnrSW
v 0.155200 0.125100 -0.155500
v 0.374600 0.344900 0.061100
v 0.374600 0.344800 0.500000
v 0.155200 0.125400 0.500000
v -0.155200 0.125100 -0.155500
v -0.155200 0.125400 0.500000
v -0.374600 0.344900 0.061100
v -0.374600 0.344800 0.500000
v -0.374600 0.655200 0.500000
v -0.374600 0.655100 0.371400
v -0.155200 0.875000 0.374600
v -0.155200 0.875000 0.500000
v 0.155200 0.875000 0.374600
v 0.155200 0.875000 0.500000
v 0.374600 0.655200 0.500000
v 0.374600 0.655100 0.371400
v 0.155200 1.000000 -0.374600
v 0.374600 1.000000 -0.155200
v 0.374600 0.565900 -0.155200
v 0.155200 0.345900 -0.374600
v -0.155200 1.000000 -0.374600
v -0.155200 0.345900 -0.374600
v -0.374600 1.000000 -0.155200
v -0.374600 0.565900 -0.155200
v -0.374600 1.000000 0.155200
v -0.374600 0.875000 0.155200
v -0.155200 1.000000 0.374600
v 0.155200 1.000000 0.374600
v 0.374600 0.875000 0.155200
v 0.374600 1.000000 0.155200
vt 1.000000 1.000000
vt 0.833300 0.875000
vt 0.833300 0.625000
vt 1.000000 0.625000
vt 1.000000 0.541700
vt 0.833300 0.541700
vt 0.833300 0.208300
vt 1.000000 0.208300
vt 1.000000 0.750000
vt 0.833300 1.000000
vt 1.000000 0.875000
vt 0.833300 0.750000
vt 1.000000 0.583300
vt 0.833300 0.583300
vt 0.833300 0.458300
vt 1.000000 0.458300
vt 1.000000 0.375000
vt 0.833300 0.375000
vn 0.734900 -0.678200 -0.000200
vn 0.734200 -0.679000 0.000300
vn 0.000000 -1.000000 0.000500
vn -0.734600 -0.678500 0.000300
vn -0.734200 -0.679000 -0.000200
vn -1.000000 0.000000 0.000000
vn -0.734900 0.678200 -0.000300
vn -0.734800 0.678300 0.000000
vn 0.000000 1.000000 0.000000
vn 0.734900 0.678200 -0.000300
vn 0.734800 0.678300 -0.000000
vn 1.000000 0.000000 0.000000
vn 0.707100 0.000000 -0.707100
vn 0.000000 0.000000 -1.000000
vn -0.707100 0.000000 -0.707100
vn -0.707100 0.000000 0.707100
vn 0.000000 0.000000 1.000000
vn 0.707100 0.000000 0.707100
vn -0.594700 0.540900 0.594700
vn 0.594700 0.540900 0.594700
vn 0.826800 -0.380300 -0.414500
vn 0.824800 -0.379400 -0.419200
vn 0.000000 -0.676100 -0.736800
vn -0.826600 -0.377600 -0.417200
vn -0.825000 -0.382100 -0.416400
usemtl Pipes.SW
s off
f 1/1/1 2/2/1 3/3/1
f 3/3/2 4/4/2 1/1/2
f 5/5/3 1/6/3 4/7/3
f 4/7/3 6/8/3 5/5/3
f 7/9/4 5/3/4 6/10/4
f 6/10/5 8/1/5 7/9/5
f 8/10/6 9/1/6 10/11/6
f 10/11/6 7/12/6 8/10/6
f 11/13/7 10/14/7 9/15/7
f 9/15/8 12/16/8 11/13/8
f 13/13/9 11/14/9 12/15/9
f 12/15/9 14/16/9 13/13/9
f 15/16/10 16/13/10 13/14/10
f 13/14/11 14/15/11 15/16/11
f 16/2/12 15/12/12 3/9/12
f 3/9/12 2/1/12 16/2/12
f 17/4/13 18/3/13 19/2/13
f 19/2/13 20/1/13 17/4/13
f 21/5/14 17/6/14 20/7/14
f 20/7/14 22/8/14 21/5/14
f 23/1/15 21/10/15 22/3/15
f 22/3/15 24/9/15 23/1/15
f 25/1/6 23/10/6 24/12/6
f 24/12/6 26/11/6 25/1/6
f 11/13/16 27/16/16 25/15/16
f 25/15/16 26/14/16 11/13/16
f 28/13/17 27/14/17 11/15/17
f 11/15/17 13/16/17 28/13/17
f 13/15/18 29/16/18 30/13/18
f 30/13/18 28/14/18 13/15/18
f 18/9/12 30/12/12 29/2/12
f 29/2/12 19/1/12 18/9/12
f 26/14/19 10/12/19 11/13/19
f 29/9/20 13/12/20 16/13/20
f 1/17/21 20/5/21 19/6/21
f 19/6/22 2/18/22 1/17/22
f 5/8/23 22/17/23 20/18/23
f 20/18/23 1/7/23 5/8/23
f 7/8/24 24/17/24 22/18/24
f 22/18/25 5/7/25 7/8/25
f 10/8/6 26/17/6 24/18/6
f 24/18/6 7/7/6 10/8/6
f 2/8/12 19/17/12 29/18/12
f 29/18/12 16/7/12 2/8/12
