# Blender v2.76 (sub 0) OBJ File: ''
# www.blender.org
mtllib SSPipes.mtl
o PipeOpening.001
v 0.206900 1.000122 -0.499500
v 0.499500 1.000122 -0.206900
v 0.499500 0.812622 -0.206900
v 0.206900 0.812622 -0.499500
v -0.206900 1.000122 -0.499500
v -0.206900 0.812622 -0.499500
v -0.499500 1.000122 -0.206900
v -0.499500 0.812622 -0.206900
v -0.499500 1.000122 0.206900
v -0.499500 0.812622 0.206900
v -0.206900 1.000122 0.499500
v -0.206900 0.812622 0.499500
v 0.206900 1.000122 0.499500
v 0.206900 0.812622 0.499500
v 0.499500 1.000122 0.206900
v 0.499500 0.812622 0.206900
v 0.374600 0.812622 -0.155200
v 0.155200 0.812622 -0.374600
v 0.374600 0.812622 0.155200
v 0.155200 0.812622 0.374600
v -0.155200 0.812622 0.374600
v -0.374600 0.812622 0.155200
v -0.374600 0.812622 -0.155200
v -0.155200 0.812622 -0.374600
v 0.000000 1.000122 0.000000
vt 0.500000 0.125000
vt 0.250000 0.125000
vt 0.250000 -0.000000
vt 0.500000 -0.000000
vt 1.000000 0.125000
vt 0.750000 0.125000
vt 0.750000 0.000000
vt 1.000000 0.000000
vt 0.000000 0.125000
vt -0.000000 -0.000000
vt 0.291700 1.000000
vt 0.000000 1.000000
vt 0.041700 0.916700
vt 0.250000 0.916700
vt 0.583300 1.000000
vt 0.333300 0.916700
vt 0.541700 0.916700
vt 0.833300 0.375000
vt 0.833300 0.625000
vt 0.500000 0.500000
vt 0.843800 0.625000
vt 0.625000 0.833300
vt 0.375000 0.833300
vt 0.166700 0.625000
vt 0.166700 0.375000
vt 0.375000 0.166700
vt 0.625000 0.166700
vn 0.707100 -0.000000 -0.707100
vn 0.000000 0.000000 -1.000000
vn -0.707100 0.000000 -0.707100
vn -1.000000 -0.000000 0.000000
vn -0.707100 0.000000 0.707100
vn 0.000000 0.000000 1.000000
vn 0.707100 0.000000 0.707100
vn 1.000000 0.000000 0.000000
vn 0.000000 -1.000000 0.000000
vn -0.000000 1.000000 0.000000
usemtl Pipes
s off
f 1/1/1 2/2/1 3/3/1
f 3/3/1 4/4/1 1/1/1
f 5/5/2 1/6/2 4/7/2
f 4/7/2 6/8/2 5/5/2
f 7/2/3 5/9/3 6/10/3
f 6/10/3 8/3/3 7/2/3
f 9/6/4 7/1/4 8/4/4
f 8/4/4 10/7/4 9/6/4
f 11/1/5 9/2/5 10/3/5
f 10/3/5 12/4/5 11/1/5
f 13/5/6 11/6/6 12/7/6
f 12/7/6 14/8/6 13/5/6
f 15/2/7 13/9/7 14/10/7
f 14/10/7 16/3/7 15/2/7
f 2/6/8 15/1/8 16/4/8
f 16/4/8 3/7/8 2/6/8
f 4/11/9 3/12/9 17/13/9
f 17/13/9 18/14/9 4/11/9
f 3/15/9 16/11/9 19/16/9
f 19/16/9 17/17/9 3/15/9
f 16/11/9 14/12/9 20/13/9
f 20/13/9 19/14/9 16/11/9
f 14/15/9 12/11/9 21/16/9
f 21/16/9 20/17/9 14/15/9
f 12/11/9 10/12/9 22/13/9
f 22/13/9 21/14/9 12/11/9
f 10/15/9 8/11/9 23/16/9
f 23/16/9 22/17/9 10/15/9
f 8/11/9 6/12/9 24/13/9
f 24/13/9 23/14/9 8/11/9
f 6/15/9 4/11/9 18/16/9
f 18/16/9 24/17/9 6/15/9
f 15/18/10 2/19/10 25/20/10
f 2/21/10 1/22/10 25/20/10
f 1/22/10 5/23/10 25/20/10
f 5/23/10 7/24/10 25/20/10
f 7/24/10 9/25/10 25/20/10
f 9/25/10 11/26/10 25/20/10
f 11/26/10 13/27/10 25/20/10
f 13/27/10 15/18/10 25/20/10
o Pipe0C
v 0.155200 1.000000 -0.374600
v 0.374600 1.000000 -0.155200
v 0.374600 0.000000 -0.155200
v 0.155200 0.000000 -0.374600
v -0.155200 1.000000 -0.374600
v -0.155200 0.000000 -0.374600
v -0.374600 1.000000 -0.155200
v -0.374600 0.000000 -0.155200
v -0.374600 1.000000 0.155200
v -0.374600 -0.000000 0.155200
v -0.155200 1.000000 0.374600
v -0.155200 -0.000000 0.374600
v 0.155200 1.000000 0.374600
v 0.155200 -0.000000 0.374600
v 0.374600 1.000000 0.155200
v 0.374600 -0.000000 0.155200
vt 1.000000 1.000000
vt 0.833300 1.000000
vt 0.833300 0.333300
vt 1.000000 0.333300
vt 1.000000 0.875000
vt 0.833300 0.875000
vt 0.833300 0.208300
vt 1.000000 0.208300
vn 0.707100 0.000000 -0.707100
vn 0.000000 0.000000 -1.000000
vn -0.707100 0.000000 -0.707100
vn -1.000000 0.000000 0.000000
vn -0.707100 -0.000000 0.707100
vn 0.000000 -0.000000 1.000000
vn 0.707100 -0.000000 0.707100
vn 1.000000 -0.000000 0.000000
usemtl Pipes
s off
f 26/28/11 27/29/11 28/30/11
f 28/30/11 29/31/11 26/28/11
f 30/32/12 26/33/12 29/34/12
f 29/34/12 31/35/12 30/32/12
f 32/28/13 30/29/13 31/30/13
f 31/30/13 33/31/13 32/28/13
f 34/32/14 32/33/14 33/34/14
f 33/34/14 35/35/14 34/32/14
f 36/28/15 34/29/15 35/30/15
f 35/30/15 37/31/15 36/28/15
f 38/32/16 36/33/16 37/34/16
f 37/34/16 39/35/16 38/32/16
f 40/28/17 38/29/17 39/30/17
f 39/30/17 41/31/17 40/28/17
f 27/32/18 40/33/18 41/34/18
f 41/34/18 28/35/18 27/32/18
o PipeOpening
v 0.206900 -0.001246 0.499500
v 0.499500 -0.001246 0.206900
v 0.499500 0.186254 0.206900
v 0.206900 0.186254 0.499500
v -0.206900 -0.001246 0.499500
v -0.206900 0.186254 0.499500
v -0.499500 -0.001246 0.206900
v -0.499500 0.186254 0.206900
v -0.499500 -0.001246 -0.206900
v -0.499500 0.186254 -0.206900
v -0.206900 -0.001246 -0.499500
v -0.206900 0.186254 -0.499500
v 0.206900 -0.001246 -0.499500
v 0.206900 0.186254 -0.499500
v 0.499500 -0.001246 -0.206900
v 0.499500 0.186254 -0.206900
v 0.374600 0.186254 0.155200
v 0.155200 0.186254 0.374600
v 0.374600 0.186254 -0.155200
v 0.155200 0.186254 -0.374600
v -0.155200 0.186254 -0.374600
v -0.374600 0.186254 -0.155200
v -0.374600 0.186254 0.155200
v -0.155200 0.186254 0.374600
v 0.000000 -0.001246 -0.000000
vt 0.500000 0.125000
vt 0.250000 0.125000
vt 0.250000 -0.000000
vt 0.500000 -0.000000
vt 1.000000 0.125000
vt 0.750000 0.125000
vt 0.750000 0.000000
vt 1.000000 0.000000
vt 0.000000 0.125000
vt -0.000000 -0.000000
vt 0.291700 1.000000
vt 0.000000 1.000000
vt 0.041700 0.916700
vt 0.250000 0.916700
vt 0.583300 1.000000
vt 0.333300 0.916700
vt 0.541700 0.916700
vt 0.833300 0.375000
vt 0.833300 0.625000
vt 0.500000 0.500000
vt 0.843800 0.625000
vt 0.625000 0.833300
vt 0.375000 0.833300
vt 0.166700 0.625000
vt 0.166700 0.375000
vt 0.375000 0.166700
vt 0.625000 0.166700
vn 0.707100 0.000000 0.707100
vn 0.000000 0.000000 1.000000
vn -0.707100 0.000000 0.707100
vn -1.000000 0.000000 0.000000
vn -0.707100 0.000000 -0.707100
vn 0.000000 0.000000 -1.000000
vn 0.707100 0.000000 -0.707100
vn 1.000000 0.000000 0.000000
vn 0.000000 1.000000 0.000000
vn 0.000000 -1.000000 0.000000
usemtl Pipes
s off
f 42/36/19 43/37/19 44/38/19
f 44/38/19 45/39/19 42/36/19
f 46/40/20 42/41/20 45/42/20
f 45/42/20 47/43/20 46/40/20
f 48/37/21 46/44/21 47/45/21
f 47/45/21 49/38/21 48/37/21
f 50/41/22 48/36/22 49/39/22
f 49/39/22 51/42/22 50/41/22
f 52/36/23 50/37/23 51/38/23
f 51/38/23 53/39/23 52/36/23
f 54/40/24 52/41/24 53/42/24
f 53/42/24 55/43/24 54/40/24
f 56/37/25 54/44/25 55/45/25
f 55/45/25 57/38/25 56/37/25
f 43/41/26 56/36/26 57/39/26
f 57/39/26 44/42/26 43/41/26
f 45/46/27 44/47/27 58/48/27
f 58/48/27 59/49/27 45/46/27
f 44/50/27 57/46/27 60/51/27
f 60/51/27 58/52/27 44/50/27
f 57/46/27 55/47/27 61/48/27
f 61/48/27 60/49/27 57/46/27
f 55/50/27 53/46/27 62/51/27
f 62/51/27 61/52/27 55/50/27
f 53/46/27 51/47/27 63/48/27
f 63/48/27 62/49/27 53/46/27
f 51/50/27 49/46/27 64/51/27
f 64/51/27 63/52/27 51/50/27
f 49/46/27 47/47/27 65/48/27
f 65/48/27 64/49/27 49/46/27
f 47/50/27 45/46/27 59/51/27
f 59/51/27 65/52/27 47/50/27
f 56/53/28 43/54/28 66/55/28
f 43/56/28 42/57/28 66/55/28
f 42/57/28 46/58/28 66/55/28
f 46/58/28 48/59/28 66/55/28
f 48/59/28 50/60/28 66/55/28
f 50/60/28 52/61/28 66/55/28
f 52/61/28 54/62/28 66/55/28
f 54/62/28 56/53/28 66/55/28
