# 3ds Max Wavefront OBJ Exporter v0.97b - (c)2007 guruware
# File Created: 11.08.2014 19:35:29

#
# object Box001
#

v  -0.5000 0.0000 0.5000
v  -0.5000 0.0000 -0.5000
v  0.5000 0.0000 -0.5000
v  0.5000 0.0000 0.5000
v  -0.5000 2.0000 0.5000
v  0.5000 2.0000 0.5000
v  0.5000 2.0000 -0.5000
v  -0.5000 2.0000 -0.5000
# 8 vertices

vn 0.0000 -1.0000 -0.0000
vn 0.0000 1.0000 -0.0000
vn 0.0000 0.0000 1.0000
vn 1.0000 0.0000 -0.0000
vn 0.0000 0.0000 -1.0000
vn -1.0000 0.0000 -0.0000
# 6 vertex normals

vt 0.6667 0.6681 0.0005
vt 0.6667 1.0013 0.0005
vt 0.3333 1.0013 0.0005
vt 0.3333 0.6681 0.0005
vt 0.0000 0.6667 0.9995
vt 0.3333 0.6667 0.9995
vt 0.3333 0.9999 0.9995
vt 0.0000 0.9999 0.9995
vt 0.0000 0.0000 0.0005
vt 0.3333 0.0000 0.0005
vt 0.3333 0.6667 0.0005
vt 0.0000 0.6667 0.0005
vt 0.6667 0.0000 0.9995
vt 1.0000 0.0000 0.9995
vt 1.0000 0.6667 0.9995
vt 0.6667 0.6667 0.9995
vt 0.3333 0.0000 0.9995
vt 0.6667 0.0000 0.0005
vt 1.0000 0.0000 0.0005
vt 1.0000 0.6667 0.0005
vt 0.6667 0.6667 0.0005
# 21 texture coords

g Box001
s 2
f 1/1/1 2/2/1 3/3/1 
f 3/3/1 4/4/1 1/1/1 
s 4
f 5/5/2 6/6/2 7/7/2 
f 7/7/2 8/8/2 5/5/2 
s 8
f 1/9/3 4/10/3 6/11/3 
f 6/11/3 5/12/3 1/9/3 
s 16
f 4/13/4 3/14/4 7/15/4 
f 7/15/4 6/16/4 4/13/4 
s 32
f 3/17/5 2/13/5 8/16/5 
f 8/16/5 7/6/5 3/17/5 
s 64
f 2/18/6 1/19/6 5/20/6 
f 5/20/6 8/21/6 2/18/6 
# 12 faces

