# 3ds Max Wavefront OBJ Exporter v0.97b - (c)2007 guruware
# File Created: 24.10.2014 09:27:02

#
# object PipeOpening
#

v  0.2069 0.1875 -0.4995
v  0.4995 0.1875 -0.2069
v  0.4995 0.0000 -0.2069
v  0.2069 0.0000 -0.4995
v  -0.2069 0.1875 -0.4995
v  -0.2069 0.0000 -0.4995
v  -0.4995 0.1875 -0.2069
v  -0.4995 0.0000 -0.2069
v  -0.4995 0.1875 0.2069
v  -0.4995 0.0000 0.2069
v  -0.2069 0.1875 0.4995
v  -0.2069 0.0000 0.4995
v  0.2069 0.1875 0.4995
v  0.2069 0.0000 0.4995
v  0.4995 0.1875 0.2069
v  0.4995 0.0000 0.2069
v  0.3746 0.0000 -0.1552
v  0.1552 0.0000 -0.3746
v  0.3746 0.0000 0.1552
v  0.1552 0.0000 0.3746
v  -0.1552 0.0000 0.3746
v  -0.3746 0.0000 0.1552
v  -0.3746 0.0000 -0.1552
v  -0.1552 0.0000 -0.3746
v  0.0000 0.1875 0.0000
# 25 vertices

vn 0.7071 0.0000 -0.7071
vn -0.0000 0.0000 -1.0000
vn -0.7071 0.0000 -0.7071
vn -1.0000 0.0000 0.0000
vn -0.7071 0.0000 0.7071
vn 0.0000 0.0000 1.0000
vn 0.7071 0.0000 0.7071
vn 1.0000 0.0000 -0.0000
vn 0.0000 -1.0000 -0.0000
vn 0.0000 1.0000 -0.0000
# 10 vertex normals

vt 0.5000 0.1250 0.7069
vt 0.2500 0.1250 0.9995
vt 0.2500 -0.0000 0.9995
vt 0.5000 -0.0000 0.7069
vt 1.0000 0.1250 0.9995
vt 0.7500 0.1250 0.9995
vt 0.7500 0.0000 0.9995
vt 1.0000 0.0000 0.9995
vt 0.2500 0.1250 0.7069
vt 0.0000 0.1250 0.9995
vt -0.0000 -0.0000 0.9995
vt 0.2500 -0.0000 0.7069
vt 0.7500 0.1250 0.0005
vt 0.5000 0.1250 0.0005
vt 0.5000 0.0000 0.0005
vt 0.7500 0.0000 0.0005
vt 0.5000 0.1250 0.2931
vt 0.2500 0.1250 0.0005
vt 0.2500 -0.0000 0.0005
vt 0.5000 -0.0000 0.2931
vt 1.0000 0.1250 0.0005
vt 1.0000 0.0000 0.0005
vt 0.2500 0.1250 0.2931
vt 0.0000 0.1250 0.0005
vt -0.0000 -0.0000 0.0005
vt 0.2500 -0.0000 0.2931
vt 0.5000 0.1250 0.9995
vt 0.5000 0.0000 0.9995
vt 0.2917 1.0000 0.8122
vt 0.0000 1.0000 0.8122
vt 0.0417 0.9167 0.8122
vt 0.2500 0.9167 0.8122
vt 0.5833 1.0000 0.8122
vt 0.3333 0.9167 0.8122
vt 0.5417 0.9167 0.8122
vt 0.8333 0.3750 0.9995
vt 0.8333 0.6250 0.9995
vt 0.5000 0.5000 0.9995
vt 0.8438 0.6250 0.9995
vt 0.6250 0.8333 0.9995
vt 0.3750 0.8333 0.9995
vt 0.1667 0.6250 0.9995
vt 0.1667 0.3750 0.9995
vt 0.3750 0.1667 0.9995
vt 0.6250 0.1667 0.9995
# 45 texture coords

g PipeOpening
s off
f 1/1/1 2/2/1 3/3/1 
f 3/3/1 4/4/1 1/1/1 
f 5/5/2 1/6/2 4/7/2 
f 4/7/2 6/8/2 5/5/2 
f 7/9/3 5/10/3 6/11/3 
f 6/11/3 8/12/3 7/9/3 
f 9/13/4 7/14/4 8/15/4 
f 8/15/4 10/16/4 9/13/4 
f 11/17/5 9/18/5 10/19/5 
f 10/19/5 12/20/5 11/17/5 
f 13/21/6 11/13/6 12/16/6 
f 12/16/6 14/22/6 13/21/6 
f 15/23/7 13/24/7 14/25/7 
f 14/25/7 16/26/7 15/23/7 
f 2/6/8 15/27/8 16/28/8 
f 16/28/8 3/7/8 2/6/8 
f 4/29/9 3/30/9 17/31/9 
f 17/31/9 18/32/9 4/29/9 
f 3/33/9 16/29/9 19/34/9 
f 19/34/9 17/35/9 3/33/9 
f 16/29/9 14/30/9 20/31/9 
f 20/31/9 19/32/9 16/29/9 
f 14/33/9 12/29/9 21/34/9 
f 21/34/9 20/35/9 14/33/9 
f 12/29/9 10/30/9 22/31/9 
f 22/31/9 21/32/9 12/29/9 
f 10/33/9 8/29/9 23/34/9 
f 23/34/9 22/35/9 10/33/9 
f 8/29/9 6/30/9 24/31/9 
f 24/31/9 23/32/9 8/29/9 
f 6/33/9 4/29/9 18/34/9 
f 18/34/9 24/35/9 6/33/9 
f 15/36/10 2/37/10 25/38/10 
f 2/39/10 1/40/10 25/38/10 
f 1/40/10 5/41/10 25/38/10 
f 5/41/10 7/42/10 25/38/10 
f 7/42/10 9/43/10 25/38/10 
f 9/43/10 11/44/10 25/38/10 
f 11/44/10 13/45/10 25/38/10 
f 13/45/10 15/36/10 25/38/10 
# 40 faces

#
# object Pipe0C
#

v  0.1552 1.0000 -0.3746
v  0.3746 1.0000 -0.1552
v  0.3746 0.0000 -0.1552
v  0.1552 0.0000 -0.3746
v  -0.1552 1.0000 -0.3746
v  -0.1552 0.0000 -0.3746
v  -0.3746 1.0000 -0.1552
v  -0.3746 0.0000 -0.1552
v  -0.3746 1.0000 0.1552
v  -0.3746 0.0000 0.1552
v  -0.1552 1.0000 0.3746
v  -0.1552 0.0000 0.3746
v  0.1552 1.0000 0.3746
v  0.1552 0.0000 0.3746
v  0.3746 1.0000 0.1552
v  0.3746 0.0000 0.1552
# 16 vertices

vn 0.7071 -0.0000 -0.7071
vn -0.0000 0.0000 -1.0000
vn -0.0000 -0.0000 -1.0000
vn -0.7071 -0.0000 -0.7071
vn -0.7071 0.0000 -0.7071
vn -1.0000 -0.0000 0.0000
vn -0.7071 -0.0000 0.7071
vn 0.0000 0.0000 1.0000
vn 0.0000 -0.0000 1.0000
vn 0.7071 -0.0000 0.7071
vn 1.0000 -0.0000 0.0000
# 11 vertex normals

vt 1.0000 1.0000 0.8746
vt 0.8333 1.0000 0.6552
vt 0.8333 0.3333 0.6552
vt 1.0000 0.3333 0.8746
vt 1.0000 0.8750 0.8746
vt 0.8333 0.8750 0.8746
vt 0.8333 0.2083 0.8746
vt 1.0000 0.2083 0.8746
vt 1.0000 1.0000 0.6552
vt 0.8333 1.0000 0.8746
vt 0.8333 0.3333 0.8746
vt 1.0000 0.3333 0.6552
vt 1.0000 0.8750 0.1254
vt 0.8333 0.8750 0.1254
vt 0.8333 0.2083 0.1254
vt 1.0000 0.2083 0.1254
vt 1.0000 1.0000 0.1254
vt 0.8333 1.0000 0.3448
vt 0.8333 0.3333 0.3448
vt 1.0000 0.3333 0.1254
vt 1.0000 1.0000 0.3448
vt 0.8333 1.0000 0.1254
vt 0.8333 0.3333 0.1254
vt 1.0000 0.3333 0.3448
# 24 texture coords

g Pipe0C
s off
f 26/46/11 27/47/11 28/48/11 
f 28/48/11 29/49/11 26/46/11 
f 30/50/12 26/51/12 29/52/12 
f 29/52/13 31/53/13 30/50/13 
f 32/54/14 30/55/14 31/56/14 
f 31/56/15 33/57/15 32/54/15 
f 34/58/16 32/59/16 33/60/16 
f 33/60/16 35/61/16 34/58/16 
f 36/62/17 34/63/17 35/64/17 
f 35/64/17 37/65/17 36/62/17 
f 38/58/18 36/59/18 37/60/18 
f 37/60/19 39/61/19 38/58/19 
f 40/66/20 38/67/20 39/68/20 
f 39/68/20 41/69/20 40/66/20 
f 27/50/21 40/51/21 41/52/21 
f 41/52/21 28/53/21 27/50/21 
# 16 faces

#
# object Pipe1xCrnr
#

v  0.1552 0.1251 -0.1555
v  0.3746 0.3449 0.0611
v  0.3746 0.3448 0.5000
v  0.1552 0.1254 0.5000
v  -0.1552 0.1251 -0.1555
v  -0.1552 0.1254 0.5000
v  -0.3746 0.3449 0.0611
v  -0.3746 0.3448 0.5000
v  -0.3746 0.6552 0.5000
v  -0.3746 0.6551 0.3714
v  -0.1552 0.8750 0.3746
v  -0.1552 0.8750 0.5000
v  0.1552 0.8750 0.3746
v  0.1552 0.8750 0.5000
v  0.3746 0.6552 0.5000
v  0.3746 0.6551 0.3714
v  0.1552 1.0000 -0.3746
v  0.3746 1.0000 -0.1552
v  0.3746 0.5659 -0.1552
v  0.1552 0.3459 -0.3746
v  -0.1552 1.0000 -0.3746
v  -0.1552 0.3459 -0.3746
v  -0.3746 1.0000 -0.1552
v  -0.3746 0.5659 -0.1552
v  -0.3746 1.0000 0.1552
v  -0.3746 0.8750 0.1552
v  -0.1552 1.0000 0.3746
v  0.1552 1.0000 0.3746
v  0.3746 0.8750 0.1552
v  0.3746 1.0000 0.1552
# 30 vertices

vn 0.7349 -0.6782 -0.0002
vn 0.7342 -0.6790 0.0003
vn -0.0000 -1.0000 0.0005
vn -0.7346 -0.6785 0.0003
vn -0.7342 -0.6790 -0.0002
vn -1.0000 0.0000 -0.0000
vn -0.7348 0.6782 -0.0003
vn -0.7348 0.6783 -0.0000
vn -0.0000 1.0000 -0.0000
vn 0.0000 1.0000 0.0000
vn 0.7349 0.6782 -0.0003
vn 0.7348 0.6783 0.0000
vn 1.0000 0.0000 -0.0000
vn 0.7071 0.0000 -0.7071
vn 0.7071 -0.0000 -0.7071
vn -0.0000 0.0000 -1.0000
vn 0.0000 0.0000 -1.0000
vn -0.7071 0.0000 -0.7071
vn -1.0000 0.0000 0.0000
vn -0.7071 -0.0000 0.7071
vn -0.7071 0.0000 0.7071
vn 0.0000 -0.0000 1.0000
vn 0.7071 -0.0000 0.7071
vn 1.0000 -0.0000 0.0000
vn -0.5947 0.5409 0.5947
vn 0.5947 0.5409 0.5947
vn 0.8268 -0.3803 -0.4145
vn 0.8248 -0.3794 -0.4192
vn 0.0000 -0.6761 -0.7368
vn -0.8266 -0.3776 -0.4172
vn -0.8250 -0.3821 -0.4164
vn -1.0000 -0.0000 0.0000
vn 1.0000 0.0000 0.0000
# 33 vertex normals

vt 0.8333 0.6250 0.6552
vt 1.0000 0.7500 0.8746
vt 1.0000 1.0000 0.8746
vt 0.8333 1.0000 0.6552
vt 1.0000 0.5417 0.1255
vt 0.8333 0.5417 0.1255
vt 0.8333 0.2083 0.1258
vt 1.0000 0.2083 0.1258
vt 1.0000 0.7500 0.1254
vt 0.8333 0.6250 0.3448
vt 0.8333 1.0000 0.3448
vt 1.0000 1.0000 0.1254
vt 0.8333 1.0000 0.1254
vt 1.0000 0.8750 0.1254
vt 0.8333 0.7500 0.1254
vt 0.8333 0.4583 0.3448
vt 1.0000 0.4583 0.1254
vt 1.0000 0.5833 0.1254
vt 0.8333 0.5833 0.3448
vt 1.0000 0.5833 0.8746
vt 0.8333 0.5833 0.8746
vt 0.8333 0.4583 0.8746
vt 1.0000 0.4583 0.8746
vt 0.8333 0.5833 0.6552
vt 0.8333 0.4583 0.6552
vt 1.0000 0.8750 0.8746
vt 0.8333 1.0000 0.8746
vt 0.8333 0.7500 0.8746
vt 1.0000 1.0000 0.6552
vt 1.0000 0.7500 0.6552
vt 0.8333 0.6250 0.8746
vt 1.0000 0.5417 0.8746
vt 0.8333 0.5417 0.8746
vt 0.8333 0.2083 0.8746
vt 1.0000 0.2083 0.8746
vt 0.8333 0.5833 0.1254
vt 0.8333 0.4583 0.1254
vt 1.0000 0.4583 0.3448
vt 1.0000 0.5833 0.3448
vt 0.8333 0.7500 0.3448
vt 0.8333 0.7500 0.6552
vt 0.8333 0.5417 0.6552
vt 0.8333 0.3750 0.6552
vt 1.0000 0.3750 0.8746
vt 1.0000 0.2083 0.6584
vt 0.8333 0.3750 0.8746
vt 0.8333 0.2083 0.6584
vt 1.0000 0.2083 0.1254
vt 1.0000 0.3750 0.1254
vt 0.8333 0.3750 0.3448
vt 0.8333 0.2083 0.3448
vt 0.8333 0.3750 0.1254
vt 0.8333 0.2083 0.1254
# 53 texture coords

g Pipe1xCrnr
s off
f 42/70/22 43/71/22 44/72/22 
f 44/72/23 45/73/23 42/70/23 
f 46/74/24 42/75/24 45/76/24 
f 45/76/24 47/77/24 46/74/24 
f 48/78/25 46/79/25 47/80/25 
f 47/80/26 49/81/26 48/78/26 
f 49/82/27 50/81/27 51/83/27 
f 51/83/27 48/84/27 49/82/27 
f 52/85/28 51/86/28 50/87/28 
f 50/87/29 53/88/29 52/85/29 
f 54/89/30 52/90/30 53/91/30 
f 53/91/31 55/92/31 54/89/31 
f 56/92/32 57/89/32 54/93/32 
f 54/93/33 55/94/33 56/92/33 
f 57/95/34 56/72/34 44/96/34 
f 44/96/34 43/97/34 57/95/34 
f 58/96/35 59/98/35 60/99/35 
f 60/99/36 61/100/36 58/96/36 
f 62/101/37 58/102/37 61/103/37 
f 61/103/38 63/104/38 62/101/38 
f 64/98/39 62/96/39 63/100/39 
f 63/100/39 65/99/39 64/98/39 
f 66/81/40 64/82/40 65/84/40 
f 65/84/40 67/83/40 66/81/40 
f 52/85/41 68/88/41 66/87/41 
f 66/87/42 67/86/42 52/85/42 
f 69/87/43 68/105/43 52/106/43 
f 52/106/43 54/86/43 69/87/43 
f 54/106/44 70/107/44 71/108/44 
f 71/108/44 69/105/44 54/106/44 
f 59/96/45 71/72/45 70/95/45 
f 70/95/45 60/97/45 59/96/45 
f 67/78/46 51/87/46 52/109/46 
f 70/71/47 54/110/47 57/89/47 
f 42/111/48 61/112/48 60/113/48 
f 60/113/49 43/101/49 42/111/49 
f 46/114/50 63/113/50 61/115/50 
f 61/115/50 42/116/50 46/114/50 
f 48/117/51 65/118/51 63/119/51 
f 63/119/52 46/120/52 48/117/52 
f 51/117/40 67/118/40 65/121/40 
f 65/121/53 48/122/53 51/117/53 
f 43/115/54 60/103/54 70/104/54 
f 70/104/54 57/113/54 43/115/54 
# 44 faces

#
# object PipeCap
#

v  0.3746 -0.0000 -0.1552
v  0.1552 -0.0000 -0.3746
v  0.1552 0.1875 -0.3746
v  0.3746 0.1878 -0.1552
v  -0.1552 0.0000 -0.3746
v  -0.1552 0.1878 -0.3746
v  -0.3746 0.0000 -0.1552
v  -0.3746 0.1875 -0.1552
v  -0.3746 0.0000 0.1552
v  -0.3746 0.1878 0.1552
v  -0.1552 0.0000 0.3746
v  -0.1552 0.1875 0.3746
v  0.1552 -0.0000 0.3746
v  0.1552 0.1878 0.3746
v  0.3746 -0.0000 0.1552
v  0.3746 0.1875 0.1552
v  0.0000 0.0000 0.0000
v  0.3746 0.1880 0.1552
v  -0.0000 0.1880 -0.0000
v  -0.1552 0.1880 0.3746
v  -0.3746 0.1881 -0.1552
v  0.1552 0.1880 -0.3746
# 22 vertices

vn 0.7071 0.0000 -0.7071
vn -0.0000 -0.0000 -1.0000
vn -0.7071 -0.0000 -0.7071
vn -1.0000 -0.0000 -0.0000
vn -1.0000 -0.0000 0.0000
vn -0.7071 -0.0000 0.7071
vn 0.0000 0.0000 1.0000
vn 0.7071 0.0000 0.7071
vn 1.0000 0.0000 0.0000
vn -0.0000 -1.0000 -0.0000
vn -0.0004 1.0000 0.0010
vn 0.0010 1.0000 0.0004
vn -0.0009 1.0000 -0.0004
vn 0.0004 1.0000 -0.0010
# 14 vertex normals

vt 0.0000 -0.0000 0.9995
vt 0.3000 -0.0000 0.7069
vt 0.3000 0.1500 0.7069
vt 0.0000 0.1500 0.9995
vt 0.3000 -0.0000 0.9995
vt 0.3000 0.1500 0.9995
vt 0.0000 -0.0000 0.0005
vt 0.3000 -0.0000 0.0005
vt 0.3000 0.1500 0.0005
vt 0.0000 0.1500 0.0005
vt 0.0000 -0.0000 0.2931
vt 0.0000 0.1500 0.2931
vt 0.3000 -0.0000 0.2931
vt 0.3000 0.1500 0.2931
vt 0.0000 0.5000 0.0005
vt 0.2000 0.3000 0.0005
vt 0.3500 0.6500 0.0005
vt 0.5000 0.3000 0.0005
vt 0.7000 0.5000 0.0005
vt 0.7000 0.8000 0.0005
vt 0.5000 1.0000 0.0005
vt 0.2000 1.0000 0.0005
vt 0.0000 0.8000 0.0005
vt 0.7000 0.5000 0.0000
vt 0.3500 0.6500 0.0000
vt 0.5000 0.3000 0.0000
vt 0.2000 0.3000 0.0000
vt 0.0000 0.5000 0.0000
vt 0.0000 0.8000 0.0000
vt 0.2000 1.0000 0.0000
vt 0.5000 1.0000 0.0000
vt 0.7000 0.8000 0.0000
# 32 texture coords

g PipeCap
s off
f 72/123/55 73/124/55 74/125/55 
f 74/125/55 75/126/55 72/123/55 
f 73/123/56 76/127/56 77/128/56 
f 77/128/56 74/126/56 73/123/56 
f 76/123/57 78/124/57 79/125/57 
f 79/125/57 77/126/57 76/123/57 
f 78/129/58 80/130/58 81/131/58 
f 81/131/59 79/132/59 78/129/59 
f 80/133/60 82/130/60 83/131/60 
f 83/131/60 81/134/60 80/133/60 
f 82/129/61 84/130/61 85/131/61 
f 85/131/61 83/132/61 82/129/61 
f 84/129/62 86/135/62 87/136/62 
f 87/136/62 85/132/62 84/129/62 
f 86/123/63 72/127/63 75/128/63 
f 75/128/63 87/126/63 86/123/63 
f 86/137/64 84/138/64 88/139/64 
f 84/138/64 82/140/64 88/139/64 
f 82/140/64 80/141/64 88/139/64 
f 80/141/64 78/142/64 88/139/64 
f 78/142/64 76/143/64 88/139/64 
f 76/143/64 73/144/64 88/139/64 
f 73/144/64 72/145/64 88/139/64 
f 72/145/64 86/137/64 88/139/64 
f 89/146/65 90/147/65 85/148/65 
f 85/148/66 90/147/66 91/149/66 
f 91/149/67 90/147/67 81/150/67 
f 81/150/65 90/147/65 92/151/65 
f 92/151/68 90/147/68 77/152/68 
f 77/152/67 90/147/67 93/153/67 
f 93/153/66 90/147/66 75/154/66 
f 75/154/68 90/147/68 89/146/68 
# 32 faces

#
# object Box002
#

v  -0.3750 0.1250 0.3750
v  -0.3750 0.1250 -0.3750
v  0.3750 0.1250 -0.3750
v  0.3750 0.1250 0.3750
v  -0.3750 0.8750 0.3750
v  0.3750 0.8750 0.3750
v  0.3750 0.8750 -0.3750
v  -0.3750 0.8750 -0.3750
# 8 vertices

vn 0.0000 -1.0000 -0.0000
vn 0.0000 1.0000 -0.0000
vn 0.0000 0.0000 1.0000
vn 1.0000 0.0000 -0.0000
vn 0.0000 0.0000 -1.0000
vn -1.0000 0.0000 -0.0000
# 6 vertex normals

vt 1.0000 0.0000 0.0000
vt 1.0000 1.0000 0.0000
vt 0.0000 1.0000 0.0000
vt 0.0000 0.0000 0.0000
# 4 texture coords

g Box002
s 2
f 94/155/69 95/156/69 96/157/69 
f 96/157/69 97/158/69 94/155/69 
s 4
f 98/158/70 99/155/70 100/156/70 
f 100/156/70 101/157/70 98/158/70 
s 8
f 94/158/71 97/155/71 99/156/71 
f 99/156/71 98/157/71 94/158/71 
s 16
f 97/158/72 96/155/72 100/156/72 
f 100/156/72 99/157/72 97/158/72 
s 32
f 96/158/73 95/155/73 101/156/73 
f 101/156/73 100/157/73 96/158/73 
s 64
f 95/158/74 94/155/74 98/156/74 
f 98/156/74 101/157/74 95/158/74 
# 12 faces

