# 3ds Max Wavefront OBJ Exporter v0.97b - (c)2007 guruware
# File Created: 09.11.2014 00:00:54

#
# object PipeCrnrNWAlt
#

v  0.37460 0.34480 0.50000
v  0.15520 0.12540 0.50000
v  0.15520 0.12510 -0.15550
v  0.37460 0.34490 0.06110
v  -0.15520 0.12540 0.50000
v  -0.15520 0.12510 -0.15550
v  -0.37460 0.34480 0.50000
v  -0.37460 0.34490 0.06110
v  -0.37460 0.65510 0.37140
v  -0.37460 0.65520 0.50000
v  -0.15520 0.87500 0.50000
v  -0.15520 0.87500 0.37460
v  0.15520 0.87500 0.50000
v  0.15520 0.87500 0.37460
v  0.37460 0.65520 0.50000
v  0.37460 0.65510 0.37140
v  0.37460 0.56590 -0.15520
v  0.15520 0.34590 -0.37460
v  0.15520 1.00000 -0.37460
v  0.37460 1.00000 -0.15520
v  -0.15520 0.34590 -0.37460
v  -0.15520 1.00000 -0.37460
v  -0.37460 0.56590 -0.15520
v  -0.37460 1.00000 -0.15520
v  -0.37460 0.87500 0.15520
v  -0.37460 1.00000 0.15520
v  -0.15520 1.00000 0.37460
v  0.15520 1.00000 0.37460
v  0.37460 1.00000 0.15520
v  0.37460 0.87500 0.15520
# 30 vertices

vn 0.73490 -0.67820 -0.00020
vn 0.73420 -0.67900 0.00030
vn 0.00000 -1.00000 0.00050
vn -0.73460 -0.67850 0.00030
vn -0.73420 -0.67900 -0.00020
vn -1.00000 0.00000 -0.00000
vn -0.73480 0.67820 -0.00030
vn -0.73480 0.67830 -0.00000
vn 0.00000 1.00000 -0.00000
vn 0.73490 0.67820 -0.00030
vn 0.73480 0.67830 -0.00000
vn 1.00000 0.00000 -0.00000
vn 0.70710 0.00000 -0.70710
vn 0.00000 0.00000 -1.00000
vn -0.70710 0.00000 -0.70710
vn -0.70710 0.00000 0.70710
vn 0.00000 0.00000 1.00000
vn 0.70710 0.00000 0.70710
vn -0.59470 0.54090 0.59470
vn 0.59470 0.54090 0.59470
vn 0.82680 -0.38030 -0.41450
vn 0.82480 -0.37940 -0.41920
vn 0.00000 -0.67610 -0.73680
vn -0.82660 -0.37760 -0.41720
vn -0.82500 -0.38210 -0.41640
# 25 vertex normals

vt 0.75000 1.00000 0.87460
vt 0.62500 1.00000 0.65520
vt 0.62500 0.71875 0.65520
vt 0.75000 0.81250 0.87460
vt 0.75000 0.62500 0.12580
vt 0.62500 0.62500 0.12580
vt 0.62500 0.37500 0.12550
vt 0.75000 0.37500 0.12550
vt 0.75000 0.59375 0.34480
vt 0.62500 0.59375 0.12540
vt 0.62500 0.81250 0.12540
vt 0.75000 0.90625 0.34480
vt 0.62500 0.87500 0.12540
vt 0.75000 1.00000 0.12540
vt 0.75000 0.81250 0.12540
vt 0.75000 0.65625 0.12540
vt 0.62500 0.65625 0.34480
vt 0.62500 0.59375 0.34480
vt 0.75000 0.59375 0.12540
vt 0.75000 0.43750 0.87460
vt 1.00000 0.43750 0.87460
vt 1.00000 0.56250 0.87460
vt 0.75000 0.56250 0.87460
vt 0.75000 0.59375 0.65520
vt 0.75000 0.65625 0.65520
vt 0.62500 0.65625 0.87460
vt 0.62500 0.59375 0.87460
vt 0.62500 1.00000 0.87460
vt 0.62500 0.81250 0.87460
vt 0.75000 0.93750 0.87460
vt 0.62500 0.81250 0.65520
vt 0.75000 0.68750 0.87460
vt 0.62500 0.62500 0.87460
vt 0.75000 0.62500 0.87460
vt 0.75000 0.37500 0.87460
vt 0.62500 0.37500 0.87460
vt 0.75000 0.93750 0.65520
vt 0.75000 0.78125 0.65520
vt 0.62500 0.78125 0.87460
vt 0.62500 0.96875 0.12540
vt 0.75000 0.84375 0.12540
vt 0.75000 0.78125 0.12540
vt 0.62500 0.78125 0.12540
vt 0.62500 0.65625 0.12540
vt 0.75000 0.65625 0.34480
vt 0.62500 0.62500 0.12540
vt 0.75000 0.62500 0.12540
vt 0.75000 0.56250 0.12540
vt 0.62500 0.56250 0.12540
vt 0.62500 0.93750 0.87460
vt 0.75000 0.37500 0.12540
vt 1.00000 0.50000 0.34480
vt 1.00000 0.50000 0.65520
vt 1.00000 0.37500 0.87460
vt 1.00000 0.62500 0.87460
vt 0.75000 0.62500 0.65520
vt 0.75000 0.37500 0.65520
vt 1.00000 0.62500 0.65840
vt 0.75000 0.62500 0.65840
vt 1.00000 0.37500 0.34480
vt 1.00000 0.62500 0.34480
vt 1.00000 0.37500 0.12540
vt 1.00000 0.62500 0.12540
# 63 texture coords

g PipeCrnrNWAlt
f 1/1/1 2/2/2 3/3/1 
f 3/3/1 4/4/1 1/1/1 
f 2/5/3 5/6/3 6/7/3 
f 6/7/3 3/8/3 2/5/3 
f 5/9/4 7/10/5 8/11/4 
f 8/11/4 6/12/4 5/9/4 
f 9/13/6 8/14/6 7/15/6 
f 7/15/6 10/11/6 9/13/6 
f 10/16/7 11/17/8 12/18/7 
f 12/18/7 9/19/7 10/16/7 
f 11/20/9 13/21/9 14/22/9 
f 14/22/9 12/23/9 11/20/9 
f 14/24/10 13/25/11 15/26/10 
f 15/26/10 16/27/10 14/24/10 
f 1/28/12 4/29/12 16/30/12 
f 16/30/12 15/1/12 1/28/12 
f 17/31/13 18/32/13 19/1/13 
f 19/1/13 20/2/13 17/31/13 
f 18/33/14 21/34/14 22/35/14 
f 22/35/14 19/36/14 18/33/14 
f 21/28/15 23/37/15 24/38/15 
f 24/38/15 22/39/15 21/28/15 
f 23/40/6 25/41/6 26/42/6 
f 26/42/6 24/43/6 23/40/6 
f 26/44/16 25/10/16 12/9/16 
f 12/9/16 27/45/16 26/44/16 
f 12/46/17 14/47/17 28/48/17 
f 28/48/17 27/49/17 12/46/17 
f 29/9/18 28/10/18 14/44/18 
f 14/44/18 30/45/18 29/9/18 
f 30/50/12 17/4/12 20/1/12 
f 20/1/12 29/28/12 30/50/12 
f 25/47/19 9/51/19 12/52/19 
f 30/35/20 14/53/20 16/34/20 
f 17/54/21 4/55/22 3/56/21 
f 3/56/21 18/57/21 17/54/21 
f 18/54/23 3/58/23 6/59/23 
f 6/59/23 21/35/23 18/54/23 
f 21/60/24 6/61/25 8/47/24 
f 8/47/24 23/51/24 21/60/24 
f 23/62/6 8/63/6 9/47/6 
f 9/47/6 25/51/6 23/62/6 
f 30/54/12 16/55/12 4/34/12 
f 4/34/12 17/35/12 30/54/12 
# 44 faces

