# 3ds Max Wavefront OBJ Exporter v0.97b - (c)2007 guruware
# File Created: 24.10.2014 09:30:55

#
# object VPPipe
#

v  0.1552 0.5000 -0.3746
v  0.3746 0.5000 -0.1552
v  0.3746 -0.5000 -0.1552
v  0.1552 -0.5000 -0.3746
v  -0.1552 0.5000 -0.3746
v  -0.1552 -0.5000 -0.3746
v  -0.3746 0.5000 -0.1552
v  -0.3746 -0.5000 -0.1552
v  -0.3746 0.5000 0.1552
v  -0.3746 -0.5000 0.1552
v  -0.1552 0.5000 0.3746
v  -0.1552 -0.5000 0.3746
v  0.1552 0.5000 0.3746
v  0.1552 -0.5000 0.3746
v  0.3746 0.5000 0.1552
v  0.3746 -0.5000 0.1552
# 16 vertices

vn 0.7071 -0.0000 -0.7071
vn -0.0000 0.0000 -1.0000
vn -0.0000 -0.0000 -1.0000
vn -0.7071 -0.0000 -0.7071
vn -0.7071 0.0000 -0.7071
vn -1.0000 -0.0000 0.0000
vn -0.7071 -0.0000 0.7071
vn 0.0000 0.0000 1.0000
vn 0.0000 -0.0000 1.0000
vn 0.7071 -0.0000 0.7071
vn 1.0000 -0.0000 0.0000
# 11 vertex normals

vt 1.0000 1.0000 0.8746
vt 0.8333 1.0000 0.6552
vt 0.8333 0.3333 0.6552
vt 1.0000 0.3333 0.8746
vt 1.0000 0.8750 0.8746
vt 0.8333 0.8750 0.8746
vt 0.8333 0.2083 0.8746
vt 1.0000 0.2083 0.8746
vt 1.0000 1.0000 0.6552
vt 0.8333 1.0000 0.8746
vt 0.8333 0.3333 0.8746
vt 1.0000 0.3333 0.6552
vt 1.0000 0.8750 0.1254
vt 0.8333 0.8750 0.1254
vt 0.8333 0.2083 0.1254
vt 1.0000 0.2083 0.1254
vt 1.0000 1.0000 0.1254
vt 0.8333 1.0000 0.3448
vt 0.8333 0.3333 0.3448
vt 1.0000 0.3333 0.1254
vt 1.0000 1.0000 0.3448
vt 0.8333 1.0000 0.1254
vt 0.8333 0.3333 0.1254
vt 1.0000 0.3333 0.3448
# 24 texture coords

g VPPipe
s off
f 1/1/1 2/2/1 3/3/1 
f 3/3/1 4/4/1 1/1/1 
f 5/5/2 1/6/2 4/7/2 
f 4/7/3 6/8/3 5/5/3 
f 7/9/4 5/10/4 6/11/4 
f 6/11/5 8/12/5 7/9/5 
f 9/13/6 7/14/6 8/15/6 
f 8/15/6 10/16/6 9/13/6 
f 11/17/7 9/18/7 10/19/7 
f 10/19/7 12/20/7 11/17/7 
f 13/13/8 11/14/8 12/15/8 
f 12/15/9 14/16/9 13/13/9 
f 15/21/10 13/22/10 14/23/10 
f 14/23/10 16/24/10 15/21/10 
f 2/5/11 15/6/11 16/7/11 
f 16/7/11 3/8/11 2/5/11 
# 16 faces

#
# object VPBody
#

v  -0.2787 -0.2672 0.4218
v  -0.2787 -0.2672 0.1533
v  0.2787 -0.2672 0.1533
v  0.2787 -0.2672 0.4218
v  -0.2787 0.2661 0.4218
v  0.2787 0.2661 0.4218
v  0.2787 0.2661 0.1533
v  -0.2787 0.2661 0.1533
# 8 vertices

vn 0.0000 -1.0000 -0.0000
vn 0.0000 1.0000 0.0000
vn 0.0000 0.0000 1.0000
vn 1.0000 -0.0000 -0.0000
vn 0.0000 -0.0000 -1.0000
vn -1.0000 0.0000 0.0000
# 6 vertex normals

vt 0.4815 0.5833 0.0879
vt 0.4815 1.0000 0.0879
vt 0.2593 1.0000 0.0879
vt 0.2593 0.5833 0.0879
vt 0.2593 0.5833 0.9076
vt 0.4815 0.5833 0.9076
vt 0.4815 1.0000 0.9076
vt 0.2593 1.0000 0.9076
vt 0.5185 0.5833 0.0760
vt 1.0000 0.5833 0.0760
vt 1.0000 1.0000 0.0760
vt 0.5185 1.0000 0.0760
vt 0.2593 0.5833 0.8275
vt 0.4815 0.5833 0.8275
vt 0.4815 1.0000 0.8275
vt 0.2593 1.0000 0.8275
vt -0.0000 0.7083 0.3678
vt 0.2222 0.7083 0.3678
vt 0.2222 1.0000 0.3678
vt -0.0000 1.0000 0.3678
vt 0.2593 0.5833 0.1725
vt 0.4815 0.5833 0.1725
vt 0.4815 1.0000 0.1725
vt 0.2593 1.0000 0.1725
# 24 texture coords

g VPBody
s off
f 17/25/12 18/26/12 19/27/12 
f 19/27/12 20/28/12 17/25/12 
f 21/29/13 22/30/13 23/31/13 
f 23/31/13 24/32/13 21/29/13 
f 17/33/14 20/34/14 22/35/14 
f 22/35/14 21/36/14 17/33/14 
f 20/37/15 19/38/15 23/39/15 
f 23/39/15 22/40/15 20/37/15 
f 19/41/16 18/42/16 24/43/16 
f 24/43/16 23/44/16 19/41/16 
f 18/45/17 17/46/17 21/47/17 
f 21/47/17 24/48/17 18/45/17 
# 12 faces

#
# object VPOpening1
#

v  0.2069 0.4979 -0.4995
v  0.4995 0.4979 -0.2069
v  0.4995 0.3104 -0.2069
v  0.2069 0.3104 -0.4995
v  -0.2069 0.4979 -0.4995
v  -0.2069 0.3104 -0.4995
v  -0.4995 0.4979 -0.2069
v  -0.4995 0.3104 -0.2069
v  -0.4995 0.4979 0.2069
v  -0.4995 0.3104 0.2069
v  -0.2069 0.4979 0.4995
v  -0.2069 0.3104 0.4995
v  0.2069 0.4979 0.4995
v  0.2069 0.3104 0.4995
v  0.4995 0.4979 0.2069
v  0.4995 0.3104 0.2069
v  0.3746 0.3104 -0.1552
v  0.1552 0.3104 -0.3746
v  0.3746 0.3104 0.1552
v  0.1552 0.3104 0.3746
v  -0.1552 0.3104 0.3746
v  -0.3746 0.3104 0.1552
v  -0.3746 0.3104 -0.1552
v  -0.1552 0.3104 -0.3746
v  0.0000 0.4979 -0.0000
# 25 vertices

vn 0.7071 0.0000 -0.7071
vn -0.0000 0.0000 -1.0000
vn -0.7071 0.0000 -0.7071
vn -1.0000 0.0000 0.0000
vn -0.7071 0.0000 0.7071
vn 0.0000 0.0000 1.0000
vn 0.7071 0.0000 0.7071
vn 1.0000 0.0000 -0.0000
vn 0.0000 -1.0000 -0.0000
vn 0.0000 1.0000 -0.0000
# 10 vertex normals

vt 0.5000 0.1250 0.7069
vt 0.2500 0.1250 0.9995
vt 0.2500 -0.0000 0.9995
vt 0.5000 -0.0000 0.7069
vt 1.0000 0.1250 0.9995
vt 0.7500 0.1250 0.9995
vt 0.7500 0.0000 0.9995
vt 1.0000 0.0000 0.9995
vt 0.2500 0.1250 0.7069
vt 0.0000 0.1250 0.9995
vt -0.0000 -0.0000 0.9995
vt 0.2500 -0.0000 0.7069
vt 0.7500 0.1250 0.0005
vt 0.5000 0.1250 0.0005
vt 0.5000 0.0000 0.0005
vt 0.7500 0.0000 0.0005
vt 0.5000 0.1250 0.2931
vt 0.2500 0.1250 0.0005
vt 0.2500 -0.0000 0.0005
vt 0.5000 -0.0000 0.2931
vt 1.0000 0.1250 0.0005
vt 1.0000 0.0000 0.0005
vt 0.2500 0.1250 0.2931
vt 0.0000 0.1250 0.0005
vt -0.0000 -0.0000 0.0005
vt 0.2500 -0.0000 0.2931
vt 0.5000 0.1250 0.9995
vt 0.5000 0.0000 0.9995
vt 0.2917 1.0000 0.8122
vt 0.0000 1.0000 0.8122
vt 0.0417 0.9167 0.8122
vt 0.2500 0.9167 0.8122
vt 0.5833 1.0000 0.8122
vt 0.3333 0.9167 0.8122
vt 0.5417 0.9167 0.8122
vt 0.8333 0.3750 0.9995
vt 0.8333 0.6250 0.9995
vt 0.5000 0.5000 0.9995
vt 0.8438 0.6250 0.9995
vt 0.6250 0.8333 0.9995
vt 0.3750 0.8333 0.9995
vt 0.1667 0.6250 0.9995
vt 0.1667 0.3750 0.9995
vt 0.3750 0.1667 0.9995
vt 0.6250 0.1667 0.9995
# 45 texture coords

g VPOpening1
s off
f 25/49/18 26/50/18 27/51/18 
f 27/51/18 28/52/18 25/49/18 
f 29/53/19 25/54/19 28/55/19 
f 28/55/19 30/56/19 29/53/19 
f 31/57/20 29/58/20 30/59/20 
f 30/59/20 32/60/20 31/57/20 
f 33/61/21 31/62/21 32/63/21 
f 32/63/21 34/64/21 33/61/21 
f 35/65/22 33/66/22 34/67/22 
f 34/67/22 36/68/22 35/65/22 
f 37/69/23 35/61/23 36/64/23 
f 36/64/23 38/70/23 37/69/23 
f 39/71/24 37/72/24 38/73/24 
f 38/73/24 40/74/24 39/71/24 
f 26/54/25 39/75/25 40/76/25 
f 40/76/25 27/55/25 26/54/25 
f 28/77/26 27/78/26 41/79/26 
f 41/79/26 42/80/26 28/77/26 
f 27/81/26 40/77/26 43/82/26 
f 43/82/26 41/83/26 27/81/26 
f 40/77/26 38/78/26 44/79/26 
f 44/79/26 43/80/26 40/77/26 
f 38/81/26 36/77/26 45/82/26 
f 45/82/26 44/83/26 38/81/26 
f 36/77/26 34/78/26 46/79/26 
f 46/79/26 45/80/26 36/77/26 
f 34/81/26 32/77/26 47/82/26 
f 47/82/26 46/83/26 34/81/26 
f 32/77/26 30/78/26 48/79/26 
f 48/79/26 47/80/26 32/77/26 
f 30/81/26 28/77/26 42/82/26 
f 42/82/26 48/83/26 30/81/26 
f 39/84/27 26/85/27 49/86/27 
f 26/87/27 25/88/27 49/86/27 
f 25/88/27 29/89/27 49/86/27 
f 29/89/27 31/90/27 49/86/27 
f 31/90/27 33/91/27 49/86/27 
f 33/91/27 35/92/27 49/86/27 
f 35/92/27 37/93/27 49/86/27 
f 37/93/27 39/84/27 49/86/27 
# 40 faces

#
# object VPOpening2
#

v  -0.2069 -0.4989 -0.4995
v  -0.4995 -0.4989 -0.2069
v  -0.4995 -0.3114 -0.2069
v  -0.2069 -0.3114 -0.4995
v  0.2069 -0.4989 -0.4995
v  0.2069 -0.3114 -0.4995
v  0.4995 -0.4989 -0.2069
v  0.4995 -0.3114 -0.2069
v  0.4995 -0.4989 0.2069
v  0.4995 -0.3114 0.2069
v  0.2069 -0.4989 0.4995
v  0.2069 -0.3114 0.4995
v  -0.2069 -0.4989 0.4995
v  -0.2069 -0.3114 0.4995
v  -0.4995 -0.4989 0.2069
v  -0.4995 -0.3114 0.2069
v  -0.3746 -0.3114 -0.1552
v  -0.1552 -0.3114 -0.3746
v  -0.3746 -0.3114 0.1552
v  -0.1552 -0.3114 0.3746
v  0.1552 -0.3114 0.3746
v  0.3746 -0.3114 0.1552
v  0.3746 -0.3114 -0.1552
v  0.1552 -0.3114 -0.3746
v  0.0000 -0.4989 -0.0000
# 25 vertices

vn -0.7071 -0.0000 -0.7071
vn 0.0000 0.0000 -1.0000
vn 0.7071 0.0000 -0.7071
vn 1.0000 0.0000 0.0000
vn 0.7071 0.0000 0.7071
vn -0.0000 -0.0000 1.0000
vn -0.7071 -0.0000 0.7071
vn -1.0000 -0.0000 -0.0000
vn -0.0000 1.0000 -0.0000
vn 0.0000 -1.0000 -0.0000
# 10 vertex normals

vt 0.5000 0.1250 0.7069
vt 0.2500 0.1250 0.9995
vt 0.2500 -0.0000 0.9995
vt 0.5000 -0.0000 0.7069
vt 1.0000 0.1250 0.9995
vt 0.7500 0.1250 0.9995
vt 0.7500 0.0000 0.9995
vt 1.0000 0.0000 0.9995
vt 0.2500 0.1250 0.7069
vt 0.0000 0.1250 0.9995
vt -0.0000 -0.0000 0.9995
vt 0.2500 -0.0000 0.7069
vt 0.7500 0.1250 0.0005
vt 0.5000 0.1250 0.0005
vt 0.5000 0.0000 0.0005
vt 0.7500 0.0000 0.0005
vt 0.5000 0.1250 0.2931
vt 0.2500 0.1250 0.0005
vt 0.2500 -0.0000 0.0005
vt 0.5000 -0.0000 0.2931
vt 1.0000 0.1250 0.0005
vt 1.0000 0.0000 0.0005
vt 0.2500 0.1250 0.2931
vt 0.0000 0.1250 0.0005
vt -0.0000 -0.0000 0.0005
vt 0.2500 -0.0000 0.2931
vt 0.5000 0.1250 0.9995
vt 0.5000 0.0000 0.9995
vt 0.2917 1.0000 0.8122
vt 0.0000 1.0000 0.8122
vt 0.0417 0.9167 0.8122
vt 0.2500 0.9167 0.8122
vt 0.5833 1.0000 0.8122
vt 0.3333 0.9167 0.8122
vt 0.5417 0.9167 0.8122
vt 0.8333 0.3750 0.9995
vt 0.8333 0.6250 0.9995
vt 0.5000 0.5000 0.9995
vt 0.8438 0.6250 0.9995
vt 0.6250 0.8333 0.9995
vt 0.3750 0.8333 0.9995
vt 0.1667 0.6250 0.9995
vt 0.1667 0.3750 0.9995
vt 0.3750 0.1667 0.9995
vt 0.6250 0.1667 0.9995
# 45 texture coords

g VPOpening2
s off
f 50/94/28 51/95/28 52/96/28 
f 52/96/28 53/97/28 50/94/28 
f 54/98/29 50/99/29 53/100/29 
f 53/100/29 55/101/29 54/98/29 
f 56/102/30 54/103/30 55/104/30 
f 55/104/30 57/105/30 56/102/30 
f 58/106/31 56/107/31 57/108/31 
f 57/108/31 59/109/31 58/106/31 
f 60/110/32 58/111/32 59/112/32 
f 59/112/32 61/113/32 60/110/32 
f 62/114/33 60/106/33 61/109/33 
f 61/109/33 63/115/33 62/114/33 
f 64/116/34 62/117/34 63/118/34 
f 63/118/34 65/119/34 64/116/34 
f 51/99/35 64/120/35 65/121/35 
f 65/121/35 52/100/35 51/99/35 
f 53/122/36 52/123/36 66/124/36 
f 66/124/36 67/125/36 53/122/36 
f 52/126/36 65/122/36 68/127/36 
f 68/127/36 66/128/36 52/126/36 
f 65/122/36 63/123/36 69/124/36 
f 69/124/36 68/125/36 65/122/36 
f 63/126/36 61/122/36 70/127/36 
f 70/127/36 69/128/36 63/126/36 
f 61/122/36 59/123/36 71/124/36 
f 71/124/36 70/125/36 61/122/36 
f 59/126/36 57/122/36 72/127/36 
f 72/127/36 71/128/36 59/126/36 
f 57/122/36 55/123/36 73/124/36 
f 73/124/36 72/125/36 57/122/36 
f 55/126/36 53/122/36 67/127/36 
f 67/127/36 73/128/36 55/126/36 
f 64/129/37 51/130/37 74/131/37 
f 51/132/37 50/133/37 74/131/37 
f 50/133/37 54/134/37 74/131/37 
f 54/134/37 56/135/37 74/131/37 
f 56/135/37 58/136/37 74/131/37 
f 58/136/37 60/137/37 74/131/37 
f 60/137/37 62/138/37 74/131/37 
f 62/138/37 64/129/37 74/131/37 
# 40 faces

#
# object VPRedstone
#

v  -0.0750 -0.0741 0.4913
v  -0.0750 -0.0741 0.4213
v  0.0750 -0.0741 0.4213
v  0.0750 -0.0741 0.4913
v  -0.0750 0.0759 0.4913
v  0.0750 0.0759 0.4913
v  0.0750 0.0759 0.4213
v  -0.0750 0.0759 0.4213
# 8 vertices

vn 0.0000 -1.0000 -0.0000
vn 0.0000 1.0000 -0.0000
vn 0.0000 0.0000 1.0000
vn 1.0000 0.0000 -0.0000
vn -1.0000 0.0000 -0.0000
# 5 vertex normals

vt 1.0000 1.0000 0.0005
vt 0.7500 1.0000 0.0005
vt 0.7500 0.0000 0.0005
vt 1.0000 0.0000 0.0005
vt 0.7500 1.0000 0.9995
vt 0.7500 -0.0000 0.9995
vt 1.0000 -0.0000 0.9995
vt 1.0000 1.0000 0.9995
vt 0.0000 -0.0000 0.0005
vt 0.7500 -0.0000 0.0005
vt 0.0000 1.0000 0.0005
vt 0.7500 0.0000 0.9995
vt 1.0000 -0.0000 0.0005
# 13 texture coords

g VPRedstone
s off
f 75/139/38 76/140/38 77/141/38 
f 77/141/38 78/142/38 75/139/38 
f 79/143/39 80/144/39 81/145/39 
f 81/145/39 82/146/39 79/143/39 
f 75/147/40 78/148/40 80/140/40 
f 80/140/40 79/149/40 75/147/40 
f 78/150/41 77/145/41 81/146/41 
f 81/146/41 80/143/41 78/150/41 
f 76/141/42 75/151/42 79/139/42 
f 79/139/42 82/140/42 76/141/42 
# 10 faces

